<svg width="28" height="27" viewBox="0 0 28 27" fill="none" xmlns="http://www.w3.org/2000/svg">
<path d="M27.4925 5.47009C27.4925 8.48709 25.0468 10.9329 22.0298 10.9329C19.0128 10.9329 16.567 8.48709 16.567 5.47009C16.567 2.45309 19.0128 0.00732422 22.0298 0.00732422C25.0468 0.00732422 27.4925 2.45309 27.4925 5.47009Z" fill="#393938"/>
<path d="M11.4332 5.47009C11.4332 8.48709 8.98746 10.9329 5.97046 10.9329C2.95345 10.9329 0.50769 8.48709 0.50769 5.47009C0.50769 2.45309 2.95345 0.00732422 5.97046 0.00732422C8.98746 0.00732422 11.4332 2.45309 11.4332 5.47009Z" fill="#393938"/>
<path d="M27.4925 21.5294C27.4925 24.5464 25.0468 26.9922 22.0298 26.9922C19.0128 26.9922 16.567 24.5464 16.567 21.5294C16.567 18.5124 19.0128 16.0667 22.0298 16.0667C25.0468 16.0667 27.4925 18.5124 27.4925 21.5294Z" fill="#393938"/>
<path d="M11.4332 21.5294C11.4332 24.5464 8.98746 26.9922 5.97046 26.9922C2.95345 26.9922 0.50769 24.5464 0.50769 21.5294C0.50769 18.5124 2.95345 16.0667 5.97046 16.0667C8.98746 16.0667 11.4332 18.5124 11.4332 21.5294Z" fill="#393938"/>
</svg>
