<svg width="89" height="30" viewBox="0 0 89 30" fill="none" xmlns="http://www.w3.org/2000/svg">
<path d="M0.514499 13V1.08H4.4025C5.66117 1.08 6.7545 1.336 7.6825 1.848C8.62117 2.34933 9.3465 3.048 9.8585 3.944C10.3705 4.82933 10.6265 5.85867 10.6265 7.032C10.6265 8.19467 10.3705 9.22933 9.8585 10.136C9.3465 11.032 8.62117 11.736 7.6825 12.248C6.7545 12.7493 5.66117 13 4.4025 13H0.514499ZM2.6905 11.08H4.4505C5.26117 11.08 5.95983 10.9147 6.5465 10.584C7.14383 10.2427 7.60783 9.77333 7.9385 9.176C8.26917 8.568 8.4345 7.85333 8.4345 7.032C8.4345 6.2 8.26917 5.48533 7.9385 4.888C7.60783 4.29067 7.14383 3.82667 6.5465 3.496C5.95983 3.16533 5.26117 3 4.4505 3H2.6905V11.08ZM12.3742 13V10.76H14.4862V13H12.3742ZM23.1049 13.192C22.3475 13.192 21.6435 13.0533 20.9929 12.776C20.3529 12.4987 19.7982 12.1147 19.3289 11.624C18.8702 11.1227 18.5342 10.5413 18.3209 9.88L20.1289 9.096C20.4169 9.77867 20.8329 10.3173 21.3769 10.712C21.9209 11.096 22.5342 11.288 23.2169 11.288C23.6009 11.288 23.9315 11.2293 24.2089 11.112C24.4969 10.984 24.7155 10.8133 24.8649 10.6C25.0249 10.3867 25.1049 10.1307 25.1049 9.832C25.1049 9.48 24.9982 9.192 24.7849 8.968C24.5822 8.73333 24.2729 8.552 23.8569 8.424L21.5689 7.688C20.6409 7.4 19.9422 6.968 19.4729 6.392C19.0035 5.816 18.7689 5.13867 18.7689 4.36C18.7689 3.67733 18.9342 3.07467 19.2649 2.552C19.6062 2.02933 20.0755 1.624 20.6729 1.336C21.2809 1.03733 21.9742 0.888 22.7529 0.888C23.4675 0.888 24.1235 1.016 24.7209 1.272C25.3182 1.51733 25.8302 1.864 26.2569 2.312C26.6942 2.74933 27.0195 3.26667 27.2329 3.864L25.4409 4.664C25.2062 4.06667 24.8542 3.608 24.3849 3.288C23.9155 2.95733 23.3715 2.792 22.7529 2.792C22.3902 2.792 22.0702 2.856 21.7929 2.984C21.5155 3.10133 21.2969 3.272 21.1369 3.496C20.9875 3.70933 20.9129 3.96533 20.9129 4.264C20.9129 4.59467 21.0195 4.888 21.2329 5.144C21.4462 5.38933 21.7715 5.58133 22.2089 5.72L24.4009 6.408C25.3502 6.71733 26.0595 7.144 26.5289 7.688C27.0089 8.232 27.2489 8.904 27.2489 9.704C27.2489 10.3867 27.0729 10.9893 26.7209 11.512C26.3689 12.0347 25.8835 12.4453 25.2649 12.744C24.6462 13.0427 23.9262 13.192 23.1049 13.192ZM29.2242 13V10.76H31.3362V13H29.2242ZM39.9549 13.192C39.1975 13.192 38.4935 13.0533 37.8429 12.776C37.2029 12.4987 36.6482 12.1147 36.1789 11.624C35.7202 11.1227 35.3842 10.5413 35.1709 9.88L36.9789 9.096C37.2669 9.77867 37.6829 10.3173 38.2269 10.712C38.7709 11.096 39.3842 11.288 40.0669 11.288C40.4509 11.288 40.7815 11.2293 41.0589 11.112C41.3469 10.984 41.5655 10.8133 41.7149 10.6C41.8749 10.3867 41.9549 10.1307 41.9549 9.832C41.9549 9.48 41.8482 9.192 41.6349 8.968C41.4322 8.73333 41.1229 8.552 40.7069 8.424L38.4189 7.688C37.4909 7.4 36.7922 6.968 36.3229 6.392C35.8535 5.816 35.6189 5.13867 35.6189 4.36C35.6189 3.67733 35.7842 3.07467 36.1149 2.552C36.4562 2.02933 36.9255 1.624 37.5229 1.336C38.1309 1.03733 38.8242 0.888 39.6029 0.888C40.3175 0.888 40.9735 1.016 41.5709 1.272C42.1682 1.51733 42.6802 1.864 43.1069 2.312C43.5442 2.74933 43.8695 3.26667 44.0829 3.864L42.2909 4.664C42.0562 4.06667 41.7042 3.608 41.2349 3.288C40.7655 2.95733 40.2215 2.792 39.6029 2.792C39.2402 2.792 38.9202 2.856 38.6429 2.984C38.3655 3.10133 38.1469 3.272 37.9869 3.496C37.8375 3.70933 37.7629 3.96533 37.7629 4.264C37.7629 4.59467 37.8695 4.888 38.0829 5.144C38.2962 5.38933 38.6215 5.58133 39.0589 5.72L41.2509 6.408C42.2002 6.71733 42.9095 7.144 43.3789 7.688C43.8589 8.232 44.0989 8.904 44.0989 9.704C44.0989 10.3867 43.9229 10.9893 43.5709 11.512C43.2189 12.0347 42.7335 12.4453 42.1149 12.744C41.4962 13.0427 40.7762 13.192 39.9549 13.192ZM49.2103 13.192C48.3143 13.192 47.5303 12.9893 46.8583 12.584C46.1863 12.1787 45.6636 11.6293 45.2903 10.936C44.9169 10.2427 44.7303 9.47467 44.7303 8.632C44.7303 7.75733 44.9169 6.984 45.2903 6.312C45.6743 5.62933 46.1916 5.09067 46.8423 4.696C47.5036 4.30133 48.2396 4.104 49.0503 4.104C49.7329 4.104 50.3303 4.216 50.8423 4.44C51.3649 4.664 51.8076 4.97333 52.1703 5.368C52.5329 5.76267 52.8103 6.216 53.0023 6.728C53.1943 7.22933 53.2903 7.77333 53.2903 8.36C53.2903 8.50933 53.2796 8.664 53.2583 8.824C53.2476 8.984 53.2209 9.12267 53.1783 9.24H46.4583V7.64H51.9943L51.0023 8.392C51.0983 7.90133 51.0716 7.464 50.9223 7.08C50.7836 6.696 50.5489 6.392 50.2183 6.168C49.8983 5.944 49.5089 5.832 49.0503 5.832C48.6129 5.832 48.2236 5.944 47.8823 6.168C47.5409 6.38133 47.2796 6.70133 47.0983 7.128C46.9276 7.544 46.8636 8.05067 46.9063 8.648C46.8636 9.18133 46.9329 9.656 47.1143 10.072C47.3063 10.4773 47.5836 10.792 47.9463 11.016C48.3196 11.24 48.7463 11.352 49.2263 11.352C49.7063 11.352 50.1116 11.2507 50.4423 11.048C50.7836 10.8453 51.0503 10.5733 51.2423 10.232L52.9383 11.064C52.7676 11.48 52.5009 11.848 52.1383 12.168C51.7756 12.488 51.3436 12.7387 50.8423 12.92C50.3516 13.1013 49.8076 13.192 49.2103 13.192ZM58.0471 13.096C57.0658 13.096 56.3031 12.8293 55.7591 12.296C55.2258 11.752 54.9591 10.9893 54.9591 10.008V6.168H53.4551V4.296H53.6151C54.0418 4.296 54.3725 4.184 54.6071 3.96C54.8418 3.736 54.9591 3.41067 54.9591 2.984V2.312H57.0551V4.296H59.0551V6.168H57.0551V9.896C57.0551 10.184 57.1031 10.4293 57.1991 10.632C57.3058 10.8347 57.4658 10.9893 57.6791 11.096C57.9031 11.2027 58.1858 11.256 58.5271 11.256C58.6018 11.256 58.6871 11.2507 58.7831 11.24C58.8898 11.2293 58.9911 11.2187 59.0871 11.208V13C58.9378 13.0213 58.7671 13.0427 58.5751 13.064C58.3831 13.0853 58.2071 13.096 58.0471 13.096ZM60.9445 16.52C60.7098 16.52 60.4805 16.4987 60.2565 16.456C60.0325 16.424 59.8298 16.36 59.6485 16.264V14.52C59.7872 14.552 59.9525 14.584 60.1445 14.616C60.3472 14.648 60.5338 14.664 60.7045 14.664C61.1845 14.664 61.5312 14.552 61.7445 14.328C61.9685 14.1147 62.1658 13.8267 62.3365 13.464L62.9125 12.12L62.8805 13.88L59.0885 4.296H61.3445L64.0005 11.368H63.2005L65.8405 4.296H68.1125L64.3205 13.88C64.0965 14.4347 63.8245 14.9093 63.5045 15.304C63.1845 15.6987 62.8112 15.9973 62.3845 16.2C61.9685 16.4133 61.4885 16.52 60.9445 16.52ZM70.791 13.192C70.183 13.192 69.655 13.0907 69.207 12.888C68.759 12.6853 68.4123 12.3973 68.167 12.024C67.9217 11.64 67.799 11.1973 67.799 10.696C67.799 10.216 67.9057 9.78933 68.119 9.416C68.3323 9.032 68.663 8.712 69.111 8.456C69.559 8.2 70.1243 8.01867 70.807 7.912L73.655 7.448V9.048L71.207 9.464C70.791 9.53867 70.4817 9.672 70.279 9.864C70.0763 10.056 69.975 10.3067 69.975 10.616C69.975 10.9147 70.087 11.1547 70.311 11.336C70.5457 11.5067 70.8337 11.592 71.175 11.592C71.6123 11.592 71.9963 11.5013 72.327 11.32C72.6683 11.128 72.9297 10.8667 73.111 10.536C73.303 10.2053 73.399 9.84267 73.399 9.448V7.208C73.399 6.83467 73.2497 6.52533 72.951 6.28C72.663 6.024 72.279 5.896 71.799 5.896C71.351 5.896 70.951 6.01867 70.599 6.264C70.2577 6.49867 70.007 6.81333 69.847 7.208L68.135 6.376C68.3057 5.91733 68.5723 5.52267 68.935 5.192C69.3083 4.85067 69.7457 4.584 70.247 4.392C70.7483 4.2 71.2923 4.104 71.879 4.104C72.5937 4.104 73.223 4.23733 73.767 4.504C74.311 4.76 74.7323 5.12267 75.031 5.592C75.3403 6.05067 75.495 6.58933 75.495 7.208V13H73.511V11.512L73.959 11.48C73.735 11.8533 73.4683 12.168 73.159 12.424C72.8497 12.6693 72.4977 12.8613 72.103 13C71.7083 13.128 71.271 13.192 70.791 13.192ZM80.6803 13.192C79.8376 13.192 79.0856 12.9947 78.4243 12.6C77.7629 12.1947 77.2403 11.6453 76.8563 10.952C76.4723 10.2587 76.2803 9.49067 76.2803 8.648C76.2803 7.79467 76.4723 7.02667 76.8563 6.344C77.2403 5.66133 77.7629 5.11733 78.4243 4.712C79.0963 4.30667 79.8429 4.104 80.6643 4.104C81.3256 4.104 81.9123 4.23733 82.4243 4.504C82.9469 4.76 83.3576 5.12267 83.6562 5.592L83.3363 6.024V0.888H85.4323V13H83.4483V11.32L83.6723 11.736C83.3736 12.2053 82.9576 12.568 82.4243 12.824C81.8909 13.0693 81.3096 13.192 80.6803 13.192ZM80.9043 11.272C81.3843 11.272 81.8056 11.16 82.1683 10.936C82.5309 10.712 82.8136 10.4027 83.0163 10.008C83.2296 9.61333 83.3363 9.16 83.3363 8.648C83.3363 8.14667 83.2296 7.69867 83.0163 7.304C82.8136 6.89867 82.5309 6.584 82.1683 6.36C81.8056 6.136 81.3843 6.024 80.9043 6.024C80.4349 6.024 80.0136 6.14133 79.6403 6.376C79.2669 6.6 78.9736 6.90933 78.7603 7.304C78.5576 7.688 78.4563 8.136 78.4563 8.648C78.4563 9.16 78.5576 9.61333 78.7603 10.008C78.9736 10.4027 79.2669 10.712 79.6403 10.936C80.0136 11.16 80.4349 11.272 80.9043 11.272ZM86.5822 13V4.296H88.6782V13H86.5822ZM86.5822 3.32V1.08H88.6782V3.32H86.5822Z" fill="white"/>
<path d="M12.5358 29.192C11.7998 29.192 11.1545 29.0587 10.5998 28.792C10.0451 28.5253 9.60781 28.152 9.28781 27.672C8.97848 27.1813 8.82381 26.6107 8.82381 25.96C8.82381 25.416 8.91981 24.9467 9.11181 24.552C9.31448 24.1467 9.55981 23.8053 9.84781 23.528C10.1358 23.24 10.4185 23.0053 10.6958 22.824C10.9838 22.6427 11.2238 22.4987 11.4158 22.392L12.4558 21.832C12.7971 21.6507 13.1065 21.4693 13.3838 21.288C13.6718 21.096 13.9011 20.888 14.0718 20.664C14.2425 20.4293 14.3278 20.1573 14.3278 19.848C14.3278 19.496 14.2105 19.2027 13.9758 18.968C13.7518 18.7227 13.4638 18.6 13.1118 18.6C12.7705 18.6 12.4771 18.7227 12.2318 18.968C11.9971 19.2027 11.8798 19.5013 11.8798 19.864C11.8798 20.1307 11.9385 20.392 12.0558 20.648C12.1838 20.904 12.3331 21.144 12.5038 21.368C12.6745 21.5813 12.8398 21.7733 12.9998 21.944L19.3198 29H16.8078L11.4798 23.16C11.2345 22.8933 10.9891 22.6053 10.7438 22.296C10.4985 21.976 10.2958 21.624 10.1358 21.24C9.97581 20.856 9.89581 20.4293 9.89581 19.96C9.89581 19.3413 10.0398 18.8027 10.3278 18.344C10.6265 17.8747 11.0158 17.5173 11.4958 17.272C11.9865 17.016 12.5198 16.888 13.0958 16.888C13.6825 16.888 14.2105 17.016 14.6798 17.272C15.1598 17.528 15.5385 17.88 15.8158 18.328C16.1038 18.776 16.2478 19.288 16.2478 19.864C16.2478 20.4507 16.1091 20.952 15.8318 21.368C15.5651 21.7733 15.2398 22.12 14.8558 22.408C14.4825 22.6853 14.1251 22.92 13.7838 23.112L12.7118 23.752C12.4771 23.88 12.2265 24.0453 11.9598 24.248C11.7038 24.44 11.4851 24.6747 11.3038 24.952C11.1225 25.2187 11.0318 25.544 11.0318 25.928C11.0318 26.3867 11.1705 26.7493 11.4478 27.016C11.7358 27.272 12.1251 27.4 12.6158 27.4C12.9145 27.4 13.1811 27.352 13.4158 27.256C13.6505 27.1493 13.8585 27.0213 14.0398 26.872C14.2211 26.712 14.3758 26.5467 14.5038 26.376C14.6318 26.1947 14.7491 26.0293 14.8558 25.88L16.7278 23.16H18.9198L16.7598 26.52C16.5998 26.7867 16.4025 27.0747 16.1678 27.384C15.9331 27.6933 15.6505 27.9867 15.3198 28.264C14.9891 28.5307 14.5945 28.7547 14.1358 28.936C13.6878 29.1067 13.1545 29.192 12.5358 29.192ZM22.6911 29V17.08H27.1391C27.9497 17.08 28.6644 17.2293 29.2831 17.528C29.9124 17.816 30.4031 18.2427 30.7551 18.808C31.1071 19.3627 31.2831 20.04 31.2831 20.84C31.2831 21.6293 31.1017 22.3067 30.7391 22.872C30.3871 23.4267 29.9017 23.8533 29.2831 24.152C28.6644 24.4507 27.9497 24.6 27.1391 24.6H24.8671V29H22.6911ZM24.8671 22.68H27.1711C27.5657 22.68 27.9071 22.6053 28.1951 22.456C28.4831 22.296 28.7071 22.0773 28.8671 21.8C29.0271 21.5227 29.1071 21.2027 29.1071 20.84C29.1071 20.4667 29.0271 20.1467 28.8671 19.88C28.7071 19.6027 28.4831 19.3893 28.1951 19.24C27.9071 19.08 27.5657 19 27.1711 19H24.8671V22.68ZM34.2144 29.192C33.6064 29.192 33.0784 29.0907 32.6304 28.888C32.1824 28.6853 31.8358 28.3973 31.5904 28.024C31.3451 27.64 31.2224 27.1973 31.2224 26.696C31.2224 26.216 31.3291 25.7893 31.5424 25.416C31.7558 25.032 32.0864 24.712 32.5344 24.456C32.9824 24.2 33.5478 24.0187 34.2304 23.912L37.0784 23.448V25.048L34.6304 25.464C34.2144 25.5387 33.9051 25.672 33.7024 25.864C33.4998 26.056 33.3984 26.3067 33.3984 26.616C33.3984 26.9147 33.5104 27.1547 33.7344 27.336C33.9691 27.5067 34.2571 27.592 34.5984 27.592C35.0358 27.592 35.4198 27.5013 35.7504 27.32C36.0918 27.128 36.3531 26.8667 36.5344 26.536C36.7264 26.2053 36.8224 25.8427 36.8224 25.448V23.208C36.8224 22.8347 36.6731 22.5253 36.3744 22.28C36.0864 22.024 35.7024 21.896 35.2224 21.896C34.7744 21.896 34.3744 22.0187 34.0224 22.264C33.6811 22.4987 33.4304 22.8133 33.2704 23.208L31.5584 22.376C31.7291 21.9173 31.9958 21.5227 32.3584 21.192C32.7318 20.8507 33.1691 20.584 33.6704 20.392C34.1718 20.2 34.7158 20.104 35.3024 20.104C36.0171 20.104 36.6464 20.2373 37.1904 20.504C37.7344 20.76 38.1558 21.1227 38.4544 21.592C38.7638 22.0507 38.9184 22.5893 38.9184 23.208V29H36.9344V27.512L37.3824 27.48C37.1584 27.8533 36.8918 28.168 36.5824 28.424C36.2731 28.6693 35.9211 28.8613 35.5264 29C35.1318 29.128 34.6944 29.192 34.2144 29.192ZM40.0557 29V20.296H42.0237V22.232L41.8637 21.944C42.0664 21.2933 42.381 20.84 42.8077 20.584C43.245 20.328 43.7677 20.2 44.3757 20.2H44.8877V22.056H44.1357C43.5384 22.056 43.0584 22.2427 42.6957 22.616C42.333 22.9787 42.1517 23.4907 42.1517 24.152V29H40.0557ZM49.4424 29.096C48.4611 29.096 47.6984 28.8293 47.1544 28.296C46.6211 27.752 46.3544 26.9893 46.3544 26.008V22.168H44.8504V20.296H45.0104C45.4371 20.296 45.7678 20.184 46.0024 19.96C46.2371 19.736 46.3544 19.4107 46.3544 18.984V18.312H48.4504V20.296H50.4504V22.168H48.4504V25.896C48.4504 26.184 48.4984 26.4293 48.5944 26.632C48.7011 26.8347 48.8611 26.9893 49.0744 27.096C49.2984 27.2027 49.5811 27.256 49.9224 27.256C49.9971 27.256 50.0824 27.2507 50.1784 27.24C50.2851 27.2293 50.3864 27.2187 50.4824 27.208V29C50.3331 29.0213 50.1624 29.0427 49.9704 29.064C49.7784 29.0853 49.6024 29.096 49.4424 29.096ZM51.2838 29V20.296H53.2518V22.008L53.0918 21.704C53.2945 21.1813 53.6251 20.7867 54.0838 20.52C54.5531 20.2427 55.0971 20.104 55.7158 20.104C56.3558 20.104 56.9211 20.2427 57.4118 20.52C57.9131 20.7973 58.3025 21.1867 58.5798 21.688C58.8571 22.1787 58.9958 22.7493 58.9958 23.4V29H56.8998V23.896C56.8998 23.512 56.8251 23.1813 56.6758 22.904C56.5265 22.6267 56.3185 22.4133 56.0518 22.264C55.7958 22.104 55.4918 22.024 55.1398 22.024C54.7985 22.024 54.4945 22.104 54.2278 22.264C53.9611 22.4133 53.7531 22.6267 53.6038 22.904C53.4545 23.1813 53.3798 23.512 53.3798 23.896V29H51.2838ZM64.0962 29.192C63.2002 29.192 62.4162 28.9893 61.7442 28.584C61.0722 28.1787 60.5495 27.6293 60.1762 26.936C59.8029 26.2427 59.6162 25.4747 59.6162 24.632C59.6162 23.7573 59.8029 22.984 60.1762 22.312C60.5602 21.6293 61.0775 21.0907 61.7282 20.696C62.3895 20.3013 63.1255 20.104 63.9362 20.104C64.6189 20.104 65.2162 20.216 65.7282 20.44C66.2509 20.664 66.6935 20.9733 67.0562 21.368C67.4189 21.7627 67.6962 22.216 67.8882 22.728C68.0802 23.2293 68.1762 23.7733 68.1762 24.36C68.1762 24.5093 68.1655 24.664 68.1442 24.824C68.1335 24.984 68.1069 25.1227 68.0642 25.24H61.3442V23.64H66.8802L65.8882 24.392C65.9842 23.9013 65.9575 23.464 65.8082 23.08C65.6695 22.696 65.4349 22.392 65.1042 22.168C64.7842 21.944 64.3949 21.832 63.9362 21.832C63.4989 21.832 63.1095 21.944 62.7682 22.168C62.4269 22.3813 62.1655 22.7013 61.9842 23.128C61.8135 23.544 61.7495 24.0507 61.7922 24.648C61.7495 25.1813 61.8189 25.656 62.0002 26.072C62.1922 26.4773 62.4695 26.792 62.8322 27.016C63.2055 27.24 63.6322 27.352 64.1122 27.352C64.5922 27.352 64.9975 27.2507 65.3282 27.048C65.6695 26.8453 65.9362 26.5733 66.1282 26.232L67.8242 27.064C67.6535 27.48 67.3869 27.848 67.0242 28.168C66.6615 28.488 66.2295 28.7387 65.7282 28.92C65.2375 29.1013 64.6935 29.192 64.0962 29.192ZM68.9651 29V20.296H70.9331V22.232L70.7731 21.944C70.9757 21.2933 71.2904 20.84 71.7171 20.584C72.1544 20.328 72.6771 20.2 73.2851 20.2H73.7971V22.056H73.0451C72.4477 22.056 71.9677 22.2427 71.6051 22.616C71.2424 22.9787 71.0611 23.4907 71.0611 24.152V29H68.9651ZM77.4614 29.192C76.5334 29.192 75.7228 28.9733 75.0294 28.536C74.3468 28.088 73.8774 27.4853 73.6214 26.728L75.1894 25.976C75.4134 26.4667 75.7228 26.8507 76.1174 27.128C76.5228 27.4053 76.9708 27.544 77.4614 27.544C77.8454 27.544 78.1494 27.4587 78.3734 27.288C78.5974 27.1173 78.7094 26.8933 78.7094 26.616C78.7094 26.4453 78.6614 26.3067 78.5654 26.2C78.4801 26.0827 78.3574 25.9867 78.1974 25.912C78.0481 25.8267 77.8828 25.7573 77.7014 25.704L76.2774 25.304C75.5414 25.0907 74.9814 24.7653 74.5974 24.328C74.2241 23.8907 74.0374 23.3733 74.0374 22.776C74.0374 22.2427 74.1708 21.7787 74.4374 21.384C74.7148 20.9787 75.0934 20.664 75.5734 20.44C76.0641 20.216 76.6241 20.104 77.2534 20.104C78.0748 20.104 78.8001 20.3013 79.4294 20.696C80.0588 21.0907 80.5068 21.6453 80.7734 22.36L79.1734 23.112C79.0241 22.7173 78.7734 22.4027 78.4214 22.168C78.0694 21.9333 77.6748 21.816 77.2374 21.816C76.8854 21.816 76.6081 21.896 76.4054 22.056C76.2028 22.216 76.1014 22.424 76.1014 22.68C76.1014 22.84 76.1441 22.9787 76.2294 23.096C76.3148 23.2133 76.4321 23.3093 76.5814 23.384C76.7414 23.4587 76.9228 23.528 77.1254 23.592L78.5174 24.008C79.2321 24.2213 79.7814 24.5413 80.1654 24.968C80.5601 25.3947 80.7574 25.9173 80.7574 26.536C80.7574 27.0587 80.6188 27.5227 80.3414 27.928C80.0641 28.3227 79.6801 28.632 79.1894 28.856C78.6988 29.08 78.1228 29.192 77.4614 29.192Z" fill="#0B6FEA"/>
</svg>
