<svg width="91" height="32" viewBox="0 0 91 32" fill="none" xmlns="http://www.w3.org/2000/svg">
<path d="M1.5145 15V3.08H5.4025C6.66117 3.08 7.7545 3.336 8.6825 3.848C9.62117 4.34933 10.3465 5.048 10.8585 5.944C11.3705 6.82933 11.6265 7.85867 11.6265 9.032C11.6265 10.1947 11.3705 11.2293 10.8585 12.136C10.3465 13.032 9.62117 13.736 8.6825 14.248C7.7545 14.7493 6.66117 15 5.4025 15H1.5145ZM3.6905 13.08H5.4505C6.26117 13.08 6.95983 12.9147 7.5465 12.584C8.14383 12.2427 8.60783 11.7733 8.9385 11.176C9.26917 10.568 9.4345 9.85333 9.4345 9.032C9.4345 8.2 9.26917 7.48533 8.9385 6.888C8.60783 6.29067 8.14383 5.82667 7.5465 5.496C6.95983 5.16533 6.26117 5 5.4505 5H3.6905V13.08ZM13.3742 15V12.76H15.4862V15H13.3742ZM24.1049 15.192C23.3475 15.192 22.6435 15.0533 21.9929 14.776C21.3529 14.4987 20.7982 14.1147 20.3289 13.624C19.8702 13.1227 19.5342 12.5413 19.3209 11.88L21.1289 11.096C21.4169 11.7787 21.8329 12.3173 22.3769 12.712C22.9209 13.096 23.5342 13.288 24.2169 13.288C24.6009 13.288 24.9315 13.2293 25.2089 13.112C25.4969 12.984 25.7155 12.8133 25.8649 12.6C26.0249 12.3867 26.1049 12.1307 26.1049 11.832C26.1049 11.48 25.9982 11.192 25.7849 10.968C25.5822 10.7333 25.2729 10.552 24.8569 10.424L22.5689 9.688C21.6409 9.4 20.9422 8.968 20.4729 8.392C20.0035 7.816 19.7689 7.13867 19.7689 6.36C19.7689 5.67733 19.9342 5.07467 20.2649 4.552C20.6062 4.02933 21.0755 3.624 21.6729 3.336C22.2809 3.03733 22.9742 2.888 23.7529 2.888C24.4675 2.888 25.1235 3.016 25.7209 3.272C26.3182 3.51733 26.8302 3.864 27.2569 4.312C27.6942 4.74933 28.0195 5.26667 28.2329 5.864L26.4409 6.664C26.2062 6.06667 25.8542 5.608 25.3849 5.288C24.9155 4.95733 24.3715 4.792 23.7529 4.792C23.3902 4.792 23.0702 4.856 22.7929 4.984C22.5155 5.10133 22.2969 5.272 22.1369 5.496C21.9875 5.70933 21.9129 5.96533 21.9129 6.264C21.9129 6.59467 22.0195 6.888 22.2329 7.144C22.4462 7.38933 22.7715 7.58133 23.2089 7.72L25.4009 8.408C26.3502 8.71733 27.0595 9.144 27.5289 9.688C28.0089 10.232 28.2489 10.904 28.2489 11.704C28.2489 12.3867 28.0729 12.9893 27.7209 13.512C27.3689 14.0347 26.8835 14.4453 26.2649 14.744C25.6462 15.0427 24.9262 15.192 24.1049 15.192ZM30.2242 15V12.76H32.3362V15H30.2242ZM40.9549 15.192C40.1975 15.192 39.4935 15.0533 38.8429 14.776C38.2029 14.4987 37.6482 14.1147 37.1789 13.624C36.7202 13.1227 36.3842 12.5413 36.1709 11.88L37.9789 11.096C38.2669 11.7787 38.6829 12.3173 39.2269 12.712C39.7709 13.096 40.3842 13.288 41.0669 13.288C41.4509 13.288 41.7815 13.2293 42.0589 13.112C42.3469 12.984 42.5655 12.8133 42.7149 12.6C42.8749 12.3867 42.9549 12.1307 42.9549 11.832C42.9549 11.48 42.8482 11.192 42.6349 10.968C42.4322 10.7333 42.1229 10.552 41.7069 10.424L39.4189 9.688C38.4909 9.4 37.7922 8.968 37.3229 8.392C36.8535 7.816 36.6189 7.13867 36.6189 6.36C36.6189 5.67733 36.7842 5.07467 37.1149 4.552C37.4562 4.02933 37.9255 3.624 38.5229 3.336C39.1309 3.03733 39.8242 2.888 40.6029 2.888C41.3175 2.888 41.9735 3.016 42.5709 3.272C43.1682 3.51733 43.6802 3.864 44.1069 4.312C44.5442 4.74933 44.8695 5.26667 45.0829 5.864L43.2909 6.664C43.0562 6.06667 42.7042 5.608 42.2349 5.288C41.7655 4.95733 41.2215 4.792 40.6029 4.792C40.2402 4.792 39.9202 4.856 39.6429 4.984C39.3655 5.10133 39.1469 5.272 38.9869 5.496C38.8375 5.70933 38.7629 5.96533 38.7629 6.264C38.7629 6.59467 38.8695 6.888 39.0829 7.144C39.2962 7.38933 39.6215 7.58133 40.0589 7.72L42.2509 8.408C43.2002 8.71733 43.9095 9.144 44.3789 9.688C44.8589 10.232 45.0989 10.904 45.0989 11.704C45.0989 12.3867 44.9229 12.9893 44.5709 13.512C44.2189 14.0347 43.7335 14.4453 43.1149 14.744C42.4962 15.0427 41.7762 15.192 40.9549 15.192ZM50.2103 15.192C49.3143 15.192 48.5303 14.9893 47.8583 14.584C47.1863 14.1787 46.6636 13.6293 46.2903 12.936C45.9169 12.2427 45.7303 11.4747 45.7303 10.632C45.7303 9.75733 45.9169 8.984 46.2903 8.312C46.6743 7.62933 47.1916 7.09067 47.8423 6.696C48.5036 6.30133 49.2396 6.104 50.0503 6.104C50.7329 6.104 51.3303 6.216 51.8423 6.44C52.3649 6.664 52.8076 6.97333 53.1703 7.368C53.5329 7.76267 53.8103 8.216 54.0023 8.728C54.1943 9.22933 54.2903 9.77333 54.2903 10.36C54.2903 10.5093 54.2796 10.664 54.2583 10.824C54.2476 10.984 54.2209 11.1227 54.1783 11.24H47.4583V9.64H52.9943L52.0023 10.392C52.0983 9.90133 52.0716 9.464 51.9223 9.08C51.7836 8.696 51.5489 8.392 51.2183 8.168C50.8983 7.944 50.5089 7.832 50.0503 7.832C49.6129 7.832 49.2236 7.944 48.8823 8.168C48.5409 8.38133 48.2796 8.70133 48.0983 9.128C47.9276 9.544 47.8636 10.0507 47.9063 10.648C47.8636 11.1813 47.9329 11.656 48.1143 12.072C48.3063 12.4773 48.5836 12.792 48.9463 13.016C49.3196 13.24 49.7463 13.352 50.2263 13.352C50.7063 13.352 51.1116 13.2507 51.4423 13.048C51.7836 12.8453 52.0503 12.5733 52.2423 12.232L53.9383 13.064C53.7676 13.48 53.5009 13.848 53.1383 14.168C52.7756 14.488 52.3436 14.7387 51.8423 14.92C51.3516 15.1013 50.8076 15.192 50.2103 15.192ZM59.0471 15.096C58.0658 15.096 57.3031 14.8293 56.7591 14.296C56.2258 13.752 55.9591 12.9893 55.9591 12.008V8.168H54.4551V6.296H54.6151C55.0418 6.296 55.3725 6.184 55.6071 5.96C55.8418 5.736 55.9591 5.41067 55.9591 4.984V4.312H58.0551V6.296H60.0551V8.168H58.0551V11.896C58.0551 12.184 58.1031 12.4293 58.1991 12.632C58.3058 12.8347 58.4658 12.9893 58.6791 13.096C58.9031 13.2027 59.1858 13.256 59.5271 13.256C59.6018 13.256 59.6871 13.2507 59.7831 13.24C59.8898 13.2293 59.9911 13.2187 60.0871 13.208V15C59.9378 15.0213 59.7671 15.0427 59.5751 15.064C59.3831 15.0853 59.2071 15.096 59.0471 15.096ZM61.9445 18.52C61.7098 18.52 61.4805 18.4987 61.2565 18.456C61.0325 18.424 60.8298 18.36 60.6485 18.264V16.52C60.7872 16.552 60.9525 16.584 61.1445 16.616C61.3472 16.648 61.5338 16.664 61.7045 16.664C62.1845 16.664 62.5312 16.552 62.7445 16.328C62.9685 16.1147 63.1658 15.8267 63.3365 15.464L63.9125 14.12L63.8805 15.88L60.0885 6.296H62.3445L65.0005 13.368H64.2005L66.8405 6.296H69.1125L65.3205 15.88C65.0965 16.4347 64.8245 16.9093 64.5045 17.304C64.1845 17.6987 63.8112 17.9973 63.3845 18.2C62.9685 18.4133 62.4885 18.52 61.9445 18.52ZM71.791 15.192C71.183 15.192 70.655 15.0907 70.207 14.888C69.759 14.6853 69.4123 14.3973 69.167 14.024C68.9217 13.64 68.799 13.1973 68.799 12.696C68.799 12.216 68.9057 11.7893 69.119 11.416C69.3323 11.032 69.663 10.712 70.111 10.456C70.559 10.2 71.1243 10.0187 71.807 9.912L74.655 9.448V11.048L72.207 11.464C71.791 11.5387 71.4817 11.672 71.279 11.864C71.0763 12.056 70.975 12.3067 70.975 12.616C70.975 12.9147 71.087 13.1547 71.311 13.336C71.5457 13.5067 71.8337 13.592 72.175 13.592C72.6123 13.592 72.9963 13.5013 73.327 13.32C73.6683 13.128 73.9297 12.8667 74.111 12.536C74.303 12.2053 74.399 11.8427 74.399 11.448V9.208C74.399 8.83467 74.2497 8.52533 73.951 8.28C73.663 8.024 73.279 7.896 72.799 7.896C72.351 7.896 71.951 8.01867 71.599 8.264C71.2577 8.49867 71.007 8.81333 70.847 9.208L69.135 8.376C69.3057 7.91733 69.5723 7.52267 69.935 7.192C70.3083 6.85067 70.7457 6.584 71.247 6.392C71.7483 6.2 72.2923 6.104 72.879 6.104C73.5937 6.104 74.223 6.23733 74.767 6.504C75.311 6.76 75.7323 7.12267 76.031 7.592C76.3403 8.05067 76.495 8.58933 76.495 9.208V15H74.511V13.512L74.959 13.48C74.735 13.8533 74.4683 14.168 74.159 14.424C73.8497 14.6693 73.4977 14.8613 73.103 15C72.7083 15.128 72.271 15.192 71.791 15.192ZM81.6803 15.192C80.8376 15.192 80.0856 14.9947 79.4243 14.6C78.7629 14.1947 78.2403 13.6453 77.8563 12.952C77.4723 12.2587 77.2803 11.4907 77.2803 10.648C77.2803 9.79467 77.4723 9.02667 77.8563 8.344C78.2403 7.66133 78.7629 7.11733 79.4243 6.712C80.0963 6.30667 80.8429 6.104 81.6643 6.104C82.3256 6.104 82.9123 6.23733 83.4243 6.504C83.9469 6.76 84.3576 7.12267 84.6562 7.592L84.3363 8.024V2.888H86.4323V15H84.4483V13.32L84.6723 13.736C84.3736 14.2053 83.9576 14.568 83.4243 14.824C82.8909 15.0693 82.3096 15.192 81.6803 15.192ZM81.9043 13.272C82.3843 13.272 82.8056 13.16 83.1683 12.936C83.5309 12.712 83.8136 12.4027 84.0163 12.008C84.2296 11.6133 84.3363 11.16 84.3363 10.648C84.3363 10.1467 84.2296 9.69867 84.0163 9.304C83.8136 8.89867 83.5309 8.584 83.1683 8.36C82.8056 8.136 82.3843 8.024 81.9043 8.024C81.4349 8.024 81.0136 8.14133 80.6403 8.376C80.2669 8.6 79.9736 8.90933 79.7603 9.304C79.5576 9.688 79.4563 10.136 79.4563 10.648C79.4563 11.16 79.5576 11.6133 79.7603 12.008C79.9736 12.4027 80.2669 12.712 80.6403 12.936C81.0136 13.16 81.4349 13.272 81.9043 13.272ZM87.5822 15V6.296H89.6782V15H87.5822ZM87.5822 5.32V3.08H89.6782V5.32H87.5822Z" fill="#1059BD"/>
<path d="M13.5358 31.192C12.7998 31.192 12.1545 31.0587 11.5998 30.792C11.0451 30.5253 10.6078 30.152 10.2878 29.672C9.97848 29.1813 9.82381 28.6107 9.82381 27.96C9.82381 27.416 9.91981 26.9467 10.1118 26.552C10.3145 26.1467 10.5598 25.8053 10.8478 25.528C11.1358 25.24 11.4185 25.0053 11.6958 24.824C11.9838 24.6427 12.2238 24.4987 12.4158 24.392L13.4558 23.832C13.7971 23.6507 14.1065 23.4693 14.3838 23.288C14.6718 23.096 14.9011 22.888 15.0718 22.664C15.2425 22.4293 15.3278 22.1573 15.3278 21.848C15.3278 21.496 15.2105 21.2027 14.9758 20.968C14.7518 20.7227 14.4638 20.6 14.1118 20.6C13.7705 20.6 13.4771 20.7227 13.2318 20.968C12.9971 21.2027 12.8798 21.5013 12.8798 21.864C12.8798 22.1307 12.9385 22.392 13.0558 22.648C13.1838 22.904 13.3331 23.144 13.5038 23.368C13.6745 23.5813 13.8398 23.7733 13.9998 23.944L20.3198 31H17.8078L12.4798 25.16C12.2345 24.8933 11.9891 24.6053 11.7438 24.296C11.4985 23.976 11.2958 23.624 11.1358 23.24C10.9758 22.856 10.8958 22.4293 10.8958 21.96C10.8958 21.3413 11.0398 20.8027 11.3278 20.344C11.6265 19.8747 12.0158 19.5173 12.4958 19.272C12.9865 19.016 13.5198 18.888 14.0958 18.888C14.6825 18.888 15.2105 19.016 15.6798 19.272C16.1598 19.528 16.5385 19.88 16.8158 20.328C17.1038 20.776 17.2478 21.288 17.2478 21.864C17.2478 22.4507 17.1091 22.952 16.8318 23.368C16.5651 23.7733 16.2398 24.12 15.8558 24.408C15.4825 24.6853 15.1251 24.92 14.7838 25.112L13.7118 25.752C13.4771 25.88 13.2265 26.0453 12.9598 26.248C12.7038 26.44 12.4851 26.6747 12.3038 26.952C12.1225 27.2187 12.0318 27.544 12.0318 27.928C12.0318 28.3867 12.1705 28.7493 12.4478 29.016C12.7358 29.272 13.1251 29.4 13.6158 29.4C13.9145 29.4 14.1811 29.352 14.4158 29.256C14.6505 29.1493 14.8585 29.0213 15.0398 28.872C15.2211 28.712 15.3758 28.5467 15.5038 28.376C15.6318 28.1947 15.7491 28.0293 15.8558 27.88L17.7278 25.16H19.9198L17.7598 28.52C17.5998 28.7867 17.4025 29.0747 17.1678 29.384C16.9331 29.6933 16.6505 29.9867 16.3198 30.264C15.9891 30.5307 15.5945 30.7547 15.1358 30.936C14.6878 31.1067 14.1545 31.192 13.5358 31.192ZM23.6911 31V19.08H28.1391C28.9497 19.08 29.6644 19.2293 30.2831 19.528C30.9124 19.816 31.4031 20.2427 31.7551 20.808C32.1071 21.3627 32.2831 22.04 32.2831 22.84C32.2831 23.6293 32.1017 24.3067 31.7391 24.872C31.3871 25.4267 30.9017 25.8533 30.2831 26.152C29.6644 26.4507 28.9497 26.6 28.1391 26.6H25.8671V31H23.6911ZM25.8671 24.68H28.1711C28.5657 24.68 28.9071 24.6053 29.1951 24.456C29.4831 24.296 29.7071 24.0773 29.8671 23.8C30.0271 23.5227 30.1071 23.2027 30.1071 22.84C30.1071 22.4667 30.0271 22.1467 29.8671 21.88C29.7071 21.6027 29.4831 21.3893 29.1951 21.24C28.9071 21.08 28.5657 21 28.1711 21H25.8671V24.68ZM35.2144 31.192C34.6064 31.192 34.0784 31.0907 33.6304 30.888C33.1824 30.6853 32.8358 30.3973 32.5904 30.024C32.3451 29.64 32.2224 29.1973 32.2224 28.696C32.2224 28.216 32.3291 27.7893 32.5424 27.416C32.7558 27.032 33.0864 26.712 33.5344 26.456C33.9824 26.2 34.5478 26.0187 35.2304 25.912L38.0784 25.448V27.048L35.6304 27.464C35.2144 27.5387 34.9051 27.672 34.7024 27.864C34.4998 28.056 34.3984 28.3067 34.3984 28.616C34.3984 28.9147 34.5104 29.1547 34.7344 29.336C34.9691 29.5067 35.2571 29.592 35.5984 29.592C36.0358 29.592 36.4198 29.5013 36.7504 29.32C37.0918 29.128 37.3531 28.8667 37.5344 28.536C37.7264 28.2053 37.8224 27.8427 37.8224 27.448V25.208C37.8224 24.8347 37.6731 24.5253 37.3744 24.28C37.0864 24.024 36.7024 23.896 36.2224 23.896C35.7744 23.896 35.3744 24.0187 35.0224 24.264C34.6811 24.4987 34.4304 24.8133 34.2704 25.208L32.5584 24.376C32.7291 23.9173 32.9958 23.5227 33.3584 23.192C33.7318 22.8507 34.1691 22.584 34.6704 22.392C35.1718 22.2 35.7158 22.104 36.3024 22.104C37.0171 22.104 37.6464 22.2373 38.1904 22.504C38.7344 22.76 39.1558 23.1227 39.4544 23.592C39.7638 24.0507 39.9184 24.5893 39.9184 25.208V31H37.9344V29.512L38.3824 29.48C38.1584 29.8533 37.8918 30.168 37.5824 30.424C37.2731 30.6693 36.9211 30.8613 36.5264 31C36.1318 31.128 35.6944 31.192 35.2144 31.192ZM41.0557 31V22.296H43.0237V24.232L42.8637 23.944C43.0664 23.2933 43.381 22.84 43.8077 22.584C44.245 22.328 44.7677 22.2 45.3757 22.2H45.8877V24.056H45.1357C44.5384 24.056 44.0584 24.2427 43.6957 24.616C43.333 24.9787 43.1517 25.4907 43.1517 26.152V31H41.0557ZM50.4424 31.096C49.4611 31.096 48.6984 30.8293 48.1544 30.296C47.6211 29.752 47.3544 28.9893 47.3544 28.008V24.168H45.8504V22.296H46.0104C46.4371 22.296 46.7678 22.184 47.0024 21.96C47.2371 21.736 47.3544 21.4107 47.3544 20.984V20.312H49.4504V22.296H51.4504V24.168H49.4504V27.896C49.4504 28.184 49.4984 28.4293 49.5944 28.632C49.7011 28.8347 49.8611 28.9893 50.0744 29.096C50.2984 29.2027 50.5811 29.256 50.9224 29.256C50.9971 29.256 51.0824 29.2507 51.1784 29.24C51.2851 29.2293 51.3864 29.2187 51.4824 29.208V31C51.3331 31.0213 51.1624 31.0427 50.9704 31.064C50.7784 31.0853 50.6024 31.096 50.4424 31.096ZM52.2838 31V22.296H54.2518V24.008L54.0918 23.704C54.2945 23.1813 54.6251 22.7867 55.0838 22.52C55.5531 22.2427 56.0971 22.104 56.7158 22.104C57.3558 22.104 57.9211 22.2427 58.4118 22.52C58.9131 22.7973 59.3025 23.1867 59.5798 23.688C59.8571 24.1787 59.9958 24.7493 59.9958 25.4V31H57.8998V25.896C57.8998 25.512 57.8251 25.1813 57.6758 24.904C57.5265 24.6267 57.3185 24.4133 57.0518 24.264C56.7958 24.104 56.4918 24.024 56.1398 24.024C55.7985 24.024 55.4945 24.104 55.2278 24.264C54.9611 24.4133 54.7531 24.6267 54.6038 24.904C54.4545 25.1813 54.3798 25.512 54.3798 25.896V31H52.2838ZM65.0962 31.192C64.2002 31.192 63.4162 30.9893 62.7442 30.584C62.0722 30.1787 61.5495 29.6293 61.1762 28.936C60.8029 28.2427 60.6162 27.4747 60.6162 26.632C60.6162 25.7573 60.8029 24.984 61.1762 24.312C61.5602 23.6293 62.0775 23.0907 62.7282 22.696C63.3895 22.3013 64.1255 22.104 64.9362 22.104C65.6189 22.104 66.2162 22.216 66.7282 22.44C67.2509 22.664 67.6935 22.9733 68.0562 23.368C68.4189 23.7627 68.6962 24.216 68.8882 24.728C69.0802 25.2293 69.1762 25.7733 69.1762 26.36C69.1762 26.5093 69.1655 26.664 69.1442 26.824C69.1335 26.984 69.1069 27.1227 69.0642 27.24H62.3442V25.64H67.8802L66.8882 26.392C66.9842 25.9013 66.9575 25.464 66.8082 25.08C66.6695 24.696 66.4349 24.392 66.1042 24.168C65.7842 23.944 65.3949 23.832 64.9362 23.832C64.4989 23.832 64.1095 23.944 63.7682 24.168C63.4269 24.3813 63.1655 24.7013 62.9842 25.128C62.8135 25.544 62.7495 26.0507 62.7922 26.648C62.7495 27.1813 62.8189 27.656 63.0002 28.072C63.1922 28.4773 63.4695 28.792 63.8322 29.016C64.2055 29.24 64.6322 29.352 65.1122 29.352C65.5922 29.352 65.9975 29.2507 66.3282 29.048C66.6695 28.8453 66.9362 28.5733 67.1282 28.232L68.8242 29.064C68.6535 29.48 68.3869 29.848 68.0242 30.168C67.6615 30.488 67.2295 30.7387 66.7282 30.92C66.2375 31.1013 65.6935 31.192 65.0962 31.192ZM69.9651 31V22.296H71.9331V24.232L71.7731 23.944C71.9757 23.2933 72.2904 22.84 72.7171 22.584C73.1544 22.328 73.6771 22.2 74.2851 22.2H74.7971V24.056H74.0451C73.4477 24.056 72.9677 24.2427 72.6051 24.616C72.2424 24.9787 72.0611 25.4907 72.0611 26.152V31H69.9651ZM78.4614 31.192C77.5334 31.192 76.7228 30.9733 76.0294 30.536C75.3468 30.088 74.8774 29.4853 74.6214 28.728L76.1894 27.976C76.4134 28.4667 76.7228 28.8507 77.1174 29.128C77.5228 29.4053 77.9708 29.544 78.4614 29.544C78.8454 29.544 79.1494 29.4587 79.3734 29.288C79.5974 29.1173 79.7094 28.8933 79.7094 28.616C79.7094 28.4453 79.6614 28.3067 79.5654 28.2C79.4801 28.0827 79.3574 27.9867 79.1974 27.912C79.0481 27.8267 78.8828 27.7573 78.7014 27.704L77.2774 27.304C76.5414 27.0907 75.9814 26.7653 75.5974 26.328C75.2241 25.8907 75.0374 25.3733 75.0374 24.776C75.0374 24.2427 75.1708 23.7787 75.4374 23.384C75.7148 22.9787 76.0934 22.664 76.5734 22.44C77.0641 22.216 77.6241 22.104 78.2534 22.104C79.0748 22.104 79.8001 22.3013 80.4294 22.696C81.0588 23.0907 81.5068 23.6453 81.7734 24.36L80.1734 25.112C80.0241 24.7173 79.7734 24.4027 79.4214 24.168C79.0694 23.9333 78.6748 23.816 78.2374 23.816C77.8854 23.816 77.6081 23.896 77.4054 24.056C77.2028 24.216 77.1014 24.424 77.1014 24.68C77.1014 24.84 77.1441 24.9787 77.2294 25.096C77.3148 25.2133 77.4321 25.3093 77.5814 25.384C77.7414 25.4587 77.9228 25.528 78.1254 25.592L79.5174 26.008C80.2321 26.2213 80.7814 26.5413 81.1654 26.968C81.5601 27.3947 81.7574 27.9173 81.7574 28.536C81.7574 29.0587 81.6188 29.5227 81.3414 29.928C81.0641 30.3227 80.6801 30.632 80.1894 30.856C79.6988 31.08 79.1228 31.192 78.4614 31.192Z" fill="#0F172A"/>
</svg>
