<svg width="24" height="24" viewBox="0 0 24 24" fill="none" xmlns="http://www.w3.org/2000/svg">
<rect x="0.5" y="0.5" width="23" height="23" rx="11.5" stroke="#777675"/>
<path d="M17.6469 18.3529V16.9412C17.6469 16.1923 17.3494 15.4742 16.8199 14.9446C16.2904 14.4151 15.5722 14.1177 14.8234 14.1177H9.17631C8.42747 14.1177 7.70929 14.4151 7.17978 14.9446C6.65026 15.4742 6.35278 16.1923 6.35278 16.9412V18.3529M14.8234 8.47059C14.8234 10.03 13.5592 11.2941 11.9998 11.2941C10.4404 11.2941 9.17631 10.03 9.17631 8.47059C9.17631 6.9112 10.4404 5.64706 11.9998 5.64706C13.5592 5.64706 14.8234 6.9112 14.8234 8.47059Z" stroke="#777675" stroke-width="1.41176" stroke-linecap="round" stroke-linejoin="round"/>
</svg>
